<?xml version="1.0" encoding="utf-8"?>
<!-- Generator: Adobe Illustrator 24.0.0, SVG Export Plug-In . SVG Version: 6.00 Build 0)  -->
<svg version="1.1" id="Layer_1" xmlns="http://www.w3.org/2000/svg" xmlns:xlink="http://www.w3.org/1999/xlink" x="0px" y="0px"
	 viewBox="0 0 1000 391.06" style="enable-background:new 0 0 1000 391.06;" xml:space="preserve">
<style type="text/css">
	.st0{fill:url(#SVGID_1_);}
	.st1{fill:#DB2441;}
	.st2{fill:#FFFFFF;}
	.st3{fill:url(#SVGID_2_);}
</style>
<g>
	<g>
		<linearGradient id="SVGID_1_" gradientUnits="userSpaceOnUse" x1="25" y1="195.5287" x2="269.1829" y2="195.5287">
			<stop  offset="2.663895e-07" style="stop-color:#253574"/>
			<stop  offset="1" style="stop-color:#263C8E"/>
		</linearGradient>
		<path class="st0" d="M176.19,285.45c-8.4,1.11-14.64-2.1-16.31-8.41l-0.25-0.94c0,0-1.4,2.23-2.16,3.8v0.01
			c2.81,6.55,10.08,9.94,19.14,8.73c15.72-2.1,39-19.77,38.69-59.82l-0.05-6.85l-3.01,6.16c-2.27,4.64-6.2,10.95-12.57,16.48
			c-6.38,5.53-15.22,10.27-27.3,11.76c-1.72,0.21-3.56,0.41-5.52,0.61c-18.42,1.92-47.73,4.98-57.13,34.07v0.02l-0.03,0.08
			l-0.07,0.22l-0.05,0.17c-1.23,3.93-2.11,8.33-2.54,13.25c-3.73,42.27,32.2,52.89,47.83,55.49c5.18,0.86,11.72,3.02,17.91,5.79
			h7.26c-8.3-4.47-18.09-7.87-24.63-8.96c-14.75-2.45-48.66-12.44-45.15-52.03c3.47-39.32,35.66-42.68,56.94-44.89
			c1.99-0.21,3.86-0.41,5.57-0.62c21.16-2.61,32.96-14.62,39.15-24.29C209.88,268.7,189.92,283.61,176.19,285.45z M244.18,50
			c-3.9-3.91-8.18-7.44-12.79-10.53c-0.52-0.34-1.04-0.69-1.56-1.03c-0.52-0.33-1.05-0.65-1.58-0.99
			c-0.62,7.31-0.3,15.59,1.62,24.71c3.51,16.64-2.1,38.24-12.77,49.14l-3.45,3.54l4.87-0.82c8.35-1.4,12.6-6.11,16.01-11.32
			c0.06,9.57-0.23,23.8-0.77,31c-1.79,23.71-11.51,42.92-22.96,57.64c0.96-0.32,1.9-0.65,2.85-1.01h0.01
			c0.91-0.33,1.81-0.69,2.7-1.06c2.83-1.16,5.59-2.49,8.27-3.94c0.87-0.48,1.74-0.97,2.59-1.48h0.01c0.87-0.52,1.74-1.05,2.58-1.59
			l3.53-2.43l0.91-0.62c0.18-0.12,0.36-0.26,0.54-0.4c0.48-0.35,0.95-0.71,1.41-1.08c20.07-15.6,32.97-39.98,32.97-67.37
			C269.18,86.78,259.64,65.44,244.18,50z M214.55,84.1c0.12-0.32,0.25-0.63,0.38-0.96c0.02-0.05,0.04-0.1,0.06-0.15
			c3.8-9.64,1.65-14.77,1.65-14.77c-2.39,5.79-7.41,10.81-12.74,16.14c-5.41,5.41-11,11-14.42,17.99
			c-7.65,15.62,5.68,33.97,7.74,36.67l-0.61,0.95c-0.22,0.31-5.3,7.81-18.93,6.92c-10.23-0.67-19.29-7.97-23.05-18.61
			c-4.8-13.56-0.23-29.03,12.23-42.01c0.15,3.33,1.06,5.43,1.94,7.49c1.06,2.43,2.16,4.95,2.16,10.06v3.45l2.64-2.23
			c5.47-4.59,5.25-9.6,5.03-14.43c-0.28-6.34-0.58-12.89,9.88-21.73c2.62-2.23,5.48-3.72,8.26-5.17c6.01-3.15,12.23-6.4,14.92-16.72
			c1.46-5.58,3.49-10.6,5.82-15.07c-0.49-0.22-0.99-0.43-1.5-0.62c-0.5-0.21-1.01-0.41-1.52-0.6C205,27.01,194.66,25,183.85,25
			H87.57c-1.32,0-2.39,1.07-2.39,2.38v55.27c0,1.31-1.06,2.38-2.38,2.38h-55.4c-1.32,0-2.39,1.07-2.39,2.38v276.26
			c0,1.31,1.06,2.38,2.38,2.38h34.38l-7.8-3.95c-0.84-0.43-20.5-10.6-24.14-30.44c-2.86-17.86-1.88-35.47,2.9-52.35
			c0.25-0.89,0.63-2.03,1.07-3.35c1.19-3.59,2.88-8.68,3.86-14.46c2.51,8.32,5.89,15.05,8.73,18.75l3.55,4.6
			c-2.93-7.76-4.17-14.13-4.66-18.64c-0.26-1.91-0.38-3.99-0.28-6.2v-0.14c0.02-0.41,0.04-0.81,0.08-1.23
			c0.37-4.54,1.71-9.62,4.62-15.06c8.68-12.55,19.99-24.06,33.69-34.27c5.53-4.63,8.53-9.36,10.11-13.64
			c1.01-2.7,1.45-5.22,1.6-7.42c0.98,2.43,1.71,4.92,2.19,7.42c1.46,7.6,0.66,15.48-2.44,23.08l-3.27,7.98l5.92-6.26
			c4.64-4.91,6.16-11.94,7.78-19.38c0.4-1.8,0.79-3.62,1.24-5.42c1.63-6.7,3.94-13.15,9.28-17.89
			c13.65-12.09,12.98-21.51,12.2-32.42c-0.65-9.17-1.39-19.44,6.28-34.02c0.22,21.28,8.64,29.15,15.53,35.58
			c2.08,1.96,4.05,3.8,5.64,5.84c7.71,9.98,6.55,22.66-2.93,32.31l-3.31,3.36l4.67-0.63c1.01-0.14,1.95-0.32,2.84-0.53
			c0.98-0.24,1.88-0.52,2.71-0.85c3.35-1.28,5.66-3.2,7.37-5.46c0.04-0.05,0.08-0.09,0.11-0.15c0.84-1.12,1.53-2.32,2.13-3.56
			c0.16,0.64,0.3,1.3,0.43,1.97c0.12,0.55,0.23,1.11,0.34,1.68v0.01c0.09,0.56,0.2,1.13,0.29,1.7c0,0.01,0,0.01,0,0.02
			c0.56,3.57,0.89,7.21,0.87,10.24c-0.01,0.92-0.03,1.82-0.06,2.7v0.25c-0.06,1.98-0.17,3.87-0.33,5.7
			c-0.05,0.64-0.11,1.28-0.19,1.9c-0.07,0.68-0.15,1.33-0.24,1.99c-2,15.22-7.66,25.04-16.92,29.29c-0.51,0.24-1.03,0.46-1.56,0.66
			c-0.11,0.04-0.24,0.09-0.36,0.14c-0.43,0.16-0.84,0.3-1.26,0.44c-0.62,0.21-1.25,0.41-1.85,0.58c-7.16,1.61-13.13,0.72-17.18-2.66
			c-3.45-2.88-5.14-7.47-4.28-11.68c0-0.02,0-0.05,0.01-0.07c0.01-0.03,0.01-0.06,0.02-0.09c0.86-3.86,2.54-6.75,4.81-8.4
			c0.46-0.33,0.93-0.61,1.42-0.84c0.41-0.19,0.82-0.33,1.25-0.46c0.2-0.05,0.4-0.1,0.59-0.15c0,0,0,0,0.01,0
			c2.2-0.44,4.23,0.09,5.6,0.98c0.01,0,0.01,0,0.01,0c0.4,0.25,0.74,0.53,1.01,0.82c0.21,0.22,0.4,0.44,0.55,0.67
			c0.23,0.31,0.43,0.62,0.58,0.94c0,0,2.41,4.6,2.16,9.9c0.24-0.4,0.48-0.87,0.71-1.41c0.36-0.87,0.7-1.91,0.89-3.05
			c0-0.01,0-0.01,0-0.02c0.26-1.52,0.29-3.18-0.15-4.86c-0.04-0.2-0.1-0.4-0.17-0.59c-0.01-0.02-0.01-0.03-0.02-0.05
			c-0.04-0.12-0.08-0.24-0.12-0.36c-0.02-0.05-0.04-0.1-0.06-0.16c-0.27-0.65-0.57-1.22-0.72-1.47c-0.03-0.05-0.06-0.09-0.07-0.11
			c0,0,0-0.01,0-0.02h-0.01c-0.16-0.26-0.34-0.52-0.54-0.78c-0.02-0.03-0.05-0.06-0.07-0.09c-0.19-0.25-0.4-0.49-0.62-0.73
			c-0.24-0.26-0.5-0.5-0.78-0.73c-2.49-2.05-6.22-2.79-9.65-1.82c-0.08,0.02-0.18,0.05-0.26,0.08c-0.49,0.15-1.02,0.34-1.59,0.6
			c-0.49,0.24-0.99,0.52-1.51,0.87c-2.39,1.6-4.97,4.58-6.29,10.09c-1.45,0.9-3.41,2.02-5.81,3.39c-11.29,6.4-30.2,17.1-44.84,34.53
			c-17.92,21.35-23.76,46.34-17.35,74.27c3.02,13.13,7.73,24.01,13.42,33.01h3.71c-6.38-9.65-11.06-20.9-14-33.72
			c-14.41-62.8,38.17-92.57,60.62-105.29c0.25-0.15,0.5-0.28,0.75-0.42c0.74-0.43,1.43-0.81,2.08-1.19c0.33-0.2,0.65-0.38,0.97-0.56
			c0.14,3.87,1.8,7.71,4.66,10.53c0.31,0.32,0.66,0.62,1,0.92c1.47,1.23,3.73,2.64,6.93,3.47c1.54,0.41,3.3,0.67,5.28,0.71
			c-0.79,0.3-1.56,0.61-2.33,0.93c-5.83,2.37-11.06,4.78-15.8,7.28c-0.58,0.3-11.31,6.13-15.48,19.66
			c0.27-5.22,1.3-10.37,2.37-13.82l3.98-12.94l-6.9,11.64c-1.57,2.65-5.15,7.78-8.58,12.51c-0.79,1.09-1.57,2.15-2.32,3.16
			c-0.26,0.34-0.51,0.68-0.76,1.01c-0.52,0.69-1.02,1.38-1.5,2.08c-10.78,15.34-14.81,32.01-12.64,52.25
			c0.99,7.47,3.7,12.49,7.2,15.96c-0.42-0.19-0.84-0.4-1.27-0.6l-3.58-1.74l1.36,3.74c3.82,10.44,10.24,18.42,17.24,24.42h5.1
			c-7.18-5.46-13.61-12.59-17.79-21.82c0,0,11.11,1.99,17.7,1.19c-0.04-0.01-0.09-0.02-0.14-0.03c-0.04-0.01-0.09-0.02-0.14-0.03
			c-0.69-0.17-1.38-0.32-2.09-0.5c-8.66-2.14-18.38-5.69-20.39-20.97c-1.82-17.06,0.94-31.49,8.66-44.71c0.62-1.08,1.29-2.15,2-3.21
			c0.6-0.94,1.24-1.86,1.9-2.79c0.31-0.44,0.63-0.87,0.96-1.31c2.19-2.93,4.77-6.49,7.04-9.72c0,0,0.28,17.21,2.92,24.81
			c-0.16-6.06,1.71-13.61,2.39-16.15c0.12-0.5,0.22-0.8,0.24-0.87c0-0.01,0-0.01,0-0.01c2.92-9.97,9.8-16.13,14.02-18.35
			c4.18-2.2,8.76-4.35,13.82-6.45c1.73-0.72,3.51-1.45,5.37-2.16c0.01,0,0.01-0.01,0.02-0.01h0.01c2.05-0.79,4.17-1.57,6.36-2.36
			c1.06-0.38,2.13-0.76,3.22-1.13l0.05,0.05l0.95-0.4l0.07-0.03l0.51-0.17c7.24-2.48,18.82-6.43,25.51-14.19
			c0,0,3.06,8.5,1.45,17.31c0.06-0.19,0.12-0.36,0.19-0.54l0.52-1.51c3.36-9.84,6.27-18.33,20.32-29.3c2.42-1.89,4.6-3.43,6.69-4.93
			c0.51-0.36,1-0.72,1.49-1.08c-0.8,0.27-16.81,5.68-26.5,12.45c-0.75,0.58-1.5,1.14-2.24,1.68l-3.11,2.25
			c-5.85,4.13-11.26,7.39-15.62,9.82c5.41-6.2,8.76-15.37,10-27.46c3.36-2.01,6.89-4.34,10.46-7.01l0.98-0.73
			c4.9-3.74,9.82-8.11,14.34-13.16c15.82-17.65,20.67-37.41,14.05-57.18c-6.83-20.39-3.3-30.58,0.93-40.83
			C214.43,84.36,214.49,84.22,214.55,84.1z M64.02,152.19h-16.9c-1.43,0-2.6-1.16-2.6-2.6c0-1.44,1.16-2.6,2.6-2.6h16.9
			c1.44,0,2.6,1.16,2.6,2.6C66.62,151.02,65.45,152.19,64.02,152.19z M44.52,129.96c0-1.43,1.16-2.6,2.6-2.6h40.72
			c1.45,0,2.6,1.16,2.6,2.6c0,1.44-1.15,2.6-2.6,2.6H47.12C45.68,132.56,44.52,131.4,44.52,129.96z M114.15,152.19H74.22
			c-1.43,0-2.6-1.16-2.6-2.6c0-1.44,1.16-2.6,2.6-2.6h39.93c1.44,0,2.6,1.16,2.6,2.6C116.75,151.02,115.58,152.19,114.15,152.19z
			 M97.96,129.91c0-1.31,1.07-2.37,2.38-2.37h10.96c1.31,0,2.37,1.06,2.37,2.37c0,1.32-1.06,2.38-2.37,2.38h-10.96
			C99.03,132.29,97.96,131.23,97.96,129.91z M114.15,112.94H47.12c-1.43,0-2.6-1.16-2.6-2.6c0-1.44,1.16-2.6,2.6-2.6h67.03
			c1.44,0,2.6,1.16,2.6,2.6C116.75,111.78,115.58,112.94,114.15,112.94z M212.03,81.76c-4.52,10.85-9.18,22.06-1.64,44.59
			c9.71,28.96-8.39,53.49-30.73,69.33l-0.33,0.24c-1.77,1.25-3.57,2.44-5.39,3.57c0.08-1.2,0.15-2.4,0.18-3.65v-0.22
			c0.04-0.88,0.05-1.8,0.06-2.71c0.03-3.64-0.4-7.98-1.13-12.12c0.77-0.49,1.53-0.98,2.27-1.47c0.51-0.33,1-0.67,1.49-1
			c0.47-0.32,0.94-0.64,1.38-0.96c0.41-0.29,0.81-0.57,1.21-0.86c0.38-0.28,0.76-0.55,1.12-0.83c0.38-0.29,0.76-0.57,1.13-0.85
			c0.28-0.22,0.55-0.43,0.82-0.63c0.09-0.06,0.19-0.14,0.28-0.21c0.72-0.56,1.4-1.11,2.06-1.65c0.3-0.26,0.6-0.51,0.89-0.76
			c0.29-0.25,0.58-0.5,0.86-0.75c0.31-0.27,0.62-0.55,0.91-0.82c0.3-0.27,0.59-0.54,0.88-0.81c0.11-0.1,0.22-0.21,0.32-0.31
			c0.34-0.31,0.67-0.63,0.99-0.96c0.11-0.11,0.23-0.22,0.33-0.33c0.26-0.26,0.52-0.52,0.77-0.78c0.36-0.4,0.73-0.78,1.07-1.16
			c0.12-0.14,0.25-0.26,0.36-0.4c0.22-0.25,0.44-0.49,0.64-0.74c0.43-0.49,0.82-0.98,1.2-1.46c0.37-0.48,0.74-0.95,1.08-1.41
			c0.34-0.48,0.67-0.94,0.97-1.39c0.16-0.22,0.29-0.44,0.43-0.66c0.14-0.21,0.26-0.41,0.38-0.6c0.15-0.24,0.28-0.47,0.42-0.71
			c0.12-0.22,0.25-0.43,0.36-0.64c0.11-0.21,0.23-0.42,0.33-0.62c0.11-0.21,0.22-0.42,0.31-0.61c0.26-0.51,0.48-1,0.69-1.49
			c0.08-0.19,0.16-0.38,0.23-0.57c0.2-0.48,0.36-0.95,0.51-1.39c3.38-8.98,0.62-14.88,0.41-15.32l-0.19-0.29
			c-0.15-0.19-14.8-18.83-7.6-33.55c3.19-6.51,8.59-11.91,13.81-17.13c2.35-2.35,4.65-4.65,6.71-7
			C212.6,80.35,212.31,81.05,212.03,81.76z"/>
		<path class="st1" d="M75.68,77.91H30.76c-2.12,0-3.19-2.57-1.68-4.07l44.93-44.8c1.5-1.49,4.05-0.43,4.05,1.68v44.8
			C78.06,76.84,77,77.91,75.68,77.91z"/>
		<path class="st2" d="M145.05,213.36h0.01c0,0.01,0,0.02,0,0.02C145.05,213.37,145.05,213.36,145.05,213.36z"/>
		<path class="st2" d="M187.69,214.66l-0.03,0.03v-0.01C187.67,214.69,187.68,214.68,187.69,214.66z"/>
		<path class="st2" d="M45.08,258.65c-0.04,0.42-0.06,0.82-0.08,1.23C45.03,259.07,45.08,258.65,45.08,258.65z"/>
		<path class="st1" d="M239.46,227.53c-0.46-0.58-0.94-1.15-1.42-1.72c-0.48-0.57-0.97-1.14-1.48-1.7
			c-0.46,5.47-1.33,10.57-2.6,15.31c-4.85,18.11-14.95,25.08-22.58,27.74l-5.05,1.76l5.19,1.32c3.16,0.81,8.4,0.83,12.1,0.52
			c-5.62,13.15-20.71,26.13-36.31,30.87c-10.33,3.15-19.53,2.17-25.89-2.75c-3.44-2.65-5.4-5.87-5.79-9.55
			c-0.32-3.02,0.41-5.99,1.43-8.52v-0.01c0-0.01,0.01-0.02,0.02-0.04c0.47-1.4,2.55-4.69,2.55-4.69l-0.08-0.02l-0.85-0.2
			c-0.18-0.04-0.47-0.08-0.85-0.12c-0.48-0.04-1.1-0.07-1.84-0.07c-3.68,0.02-10.23,0.93-15.94,5.38
			c-6.97,5.44-10.59,14.33-10.75,26.42c-0.37,27.59,34.25,30.99,34.62,31.03c0.3,0.02,30.56,2.78,39.14,22.37
			c0.5-0.19,1-0.37,1.5-0.57h0.01c0.51-0.21,1-0.41,1.49-0.62c30.7-12.92,52.24-43.28,52.24-78.67
			C258.31,260.77,251.25,242.16,239.46,227.53z"/>
	</g>
	<g>
		<g>
			<path class="st1" d="M423.14,278.48l0.04,19c2.14-3.89,7.41-5.91,11.34-5.91c8.11,0,14.6,4.9,16.17,13.97
				c2.23,12.82-5.13,20.55-16.25,20.55c-4.32,0-8.25-1.54-11.2-5.71l-0.37,5.03h-6.35l-0.12-46.93H423.14z M423.63,310.58
				c0.7,5.51,4.78,9.06,9.82,9.06c6.35,0,11.62-5.04,10.68-12.69c-0.71-5.57-4.81-8.86-9.72-8.86
				C428.12,298.09,422.74,303.26,423.63,310.58z"/>
			<path class="st1" d="M464.42,292.31l0.01,17.72c0,5.64,3.16,9.53,8.79,9.53c5.3,0,9.03-4.5,8.99-10l-0.06-17.25h6.74l0.08,33.17
				h-6.09l-0.4-4.9c-3.15,3.69-6.59,5.37-11.1,5.37c-7.92,0-13.65-5.84-13.69-15.85l-0.02-17.79H464.42z"/>
			<path class="st1" d="M518.64,300.44c-2.52-2.42-5.31-3.09-8.52-3.09c-4.45,0-7.32,1.55-6.82,4.43c0.42,2.42,3.15,3.42,7,3.76
				c5.98,0.54,13.86,2.55,13.77,11.08c-0.04,6.18-5.43,9.8-13.8,9.8c-5.23,0-10.48-1.21-14.74-6.11l3.53-4.9
				c3.02,3.42,7.52,4.83,11.32,4.9c3.21,0,6.79-1.21,6.84-4.3c0.07-2.95-2.68-4.1-7.47-4.57c-5.59-0.54-11.97-2.62-13.06-8.86
				c-1.44-8.26,6.76-11.15,13.31-11.15c4.97,0,8.84,1.14,12.42,4.43L518.64,300.44z"/>
			<path class="st1" d="M537.35,292.18l0.09,33.24h-6.74l-0.09-33.24H537.35z M529.86,283.32c0.41,2.35,2.32,3.56,4.15,3.56
				c2.62,0,4.73-1.75,4.16-5.04c-0.39-2.22-2.24-3.49-4.01-3.49C531.74,278.35,529.27,279.96,529.86,283.32z"/>
			<path class="st1" d="M571.02,325.41l-0.01-17.72c-0.01-5.71-2.58-9.53-8.73-9.53c-5.37,0-9.1,4.5-9.07,9.94l0.07,17.32h-6.74
				l-0.08-33.17h6.15l0.38,4.83c3.11-3.56,6.67-5.3,10.86-5.3c7.85,0,13.95,5.71,13.95,15.85l0.02,17.79H571.02z"/>
			<path class="st1" d="M591.49,311.45c0.61,5.04,4.66,8.33,10.55,8.33c3.27,0,7.37-1.28,9.33-3.56l4.43,4.36
				c-3.34,3.76-8.9,5.64-13.87,5.64c-9.29,0-15.72-5.71-17.24-14.44c-2.02-11.62,5.36-20.35,16.74-20.35
				c10.4,0,17.43,6.51,16.24,20.01H591.49z M611.15,305.61c-0.39-5.24-4.14-7.99-9.57-7.99c-4.91,0-8.94,2.75-9.99,7.99H611.15z"/>
			<path class="st1" d="M644.99,300.44c-2.52-2.42-5.31-3.09-8.52-3.09c-4.45,0-7.32,1.55-6.82,4.43c0.42,2.42,3.15,3.42,7,3.76
				c5.98,0.54,13.86,2.55,13.77,11.08c-0.04,6.18-5.43,9.8-13.8,9.8c-5.23,0-10.48-1.21-14.74-6.11l3.53-4.9
				c3.02,3.42,7.52,4.83,11.32,4.9c3.21,0,6.79-1.21,6.84-4.3c0.07-2.95-2.68-4.1-7.47-4.57c-5.59-0.54-11.97-2.62-13.06-8.86
				c-1.44-8.26,6.76-11.15,13.31-11.15c4.97,0,8.84,1.14,12.42,4.43L644.99,300.44z"/>
			<path class="st1" d="M677.58,300.44c-2.52-2.42-5.31-3.09-8.52-3.09c-4.45,0-7.32,1.55-6.82,4.43c0.42,2.42,3.15,3.42,7,3.76
				c5.98,0.54,13.86,2.55,13.77,11.08c-0.04,6.18-5.43,9.8-13.8,9.8c-5.23,0-10.48-1.21-14.74-6.11l3.53-4.9
				c3.02,3.42,7.52,4.83,11.32,4.9c3.21,0,6.79-1.21,6.84-4.3c0.07-2.95-2.68-4.1-7.47-4.57c-5.59-0.54-11.97-2.62-13.06-8.86
				c-1.44-8.26,6.76-11.15,13.31-11.15c4.97,0,8.84,1.14,12.42,4.43L677.58,300.44z"/>
			<path class="st1" d="M693.2,317.22c1.77,0,3.68,1.21,4.08,3.49c0.57,3.29-1.74,5.04-4.1,5.04c-1.83,0-3.74-1.21-4.15-3.56
				C688.45,318.9,690.84,317.22,693.2,317.22z"/>
			<path class="st1" d="M712.05,329.64c0.3,4.36,4.07,6.44,9.76,6.44c4.97,0,9.85-2.82,9.83-10.07l0-5.64
				c-2.21,4.23-7.28,5.91-11.27,5.91c-8.24,0-14.88-5.03-16.47-14.17c-2.27-13.02,5.85-20.55,16.51-20.55
				c4.51,0,8.96,2.22,11.05,5.97l0.2-5.24h6.54l0.28,33.91c0.09,12.55-8.34,16.38-16.65,16.38c-9.95,0-16.24-4.57-16.32-12.96
				H712.05z M710.66,310.78c0.98,5.64,5.18,9.06,10.35,9.06c13.94,0,13.85-21.96-0.09-21.96
				C714.3,297.89,709.29,302.92,710.66,310.78z"/>
			<path class="st1" d="M778.69,306.14c1.92,11.01-5.04,19.94-16.49,19.94c-8.83,0-15.07-6.11-16.49-14.3
				c-1.93-11.08,5.07-20.14,16.39-20.14C770.87,291.64,777.25,297.89,778.69,306.14z M752.41,310.78c0.85,4.9,3.64,8.86,9.79,8.86
				c7.07,0,10.95-5.91,9.8-12.49c-0.86-4.97-4.14-9.13-9.9-9.13C755.16,298.02,751.25,304.13,752.41,310.78z"/>
			<path class="st1" d="M815.66,292.25l-13.57,33.3h-7.4l-13.85-33.3h7.39l4.35,10.68l5.82,15.38l5.02-14.03l4.84-12.02H815.66z"/>
			<path class="st1" d="M822.56,317.22c1.77,0,3.68,1.21,4.08,3.49c0.57,3.29-1.74,5.04-4.1,5.04c-1.83,0-3.74-1.21-4.15-3.56
				C817.82,318.9,820.21,317.22,822.56,317.22z"/>
			<path class="st1" d="M841.6,278.48l0.06,27.39l11.97-13.56h8.18l0,0.4l-14.04,15.58l15.99,16.65l0.02,0.47h-7.98l-14.07-15.04
				l0,15.04h-6.81l-0.12-46.93H841.6z"/>
			<path class="st1" d="M875.03,278.42l0.07,18.8c2.83-4.03,6.59-5.37,10.45-5.37c9.1,0,13.32,6.24,13.34,15.71l0.03,17.86h-6.74
				l-0.02-17.79c-0.04-6.24-2.74-9.33-8.17-9.33c-5.24,0-8.91,4.43-8.88,9.87l0.06,17.25h-6.74l-0.13-47H875.03z"/>
		</g>
		<linearGradient id="SVGID_2_" gradientUnits="userSpaceOnUse" x1="339.2163" y1="150.8141" x2="975" y2="150.8141">
			<stop  offset="2.663895e-07" style="stop-color:#253574"/>
			<stop  offset="1" style="stop-color:#263C8E"/>
		</linearGradient>
		<path class="st3" d="M457.24,88h-26.65v19.04h19.04v68.53l26.65,26.65v-95.18C476.27,94.34,469.93,88,457.24,88z M424.87,228.86
			v-11.42h-7.61v-7.61h-22.84v7.61h-30.46c-7.61,0-11.42,2.54-11.42,7.61v15.23c0,5.08,3.81,7.61,11.42,7.61h30.46v7.61h30.46
			v-19.04h-7.61v-7.61H424.87z M394.41,236.47h-19.04v-7.61h19.04V236.47z M624.75,88h-22.84l-15.23,26.12l11.42,11.95v57.11h-22.84
			v-76.14c0-12.69-6.35-19.04-19.04-19.04h-38.07c-12.69,0-19.04,6.35-19.04,19.04v95.18h34.26v-19.04h-7.61v-76.14h22.84v76.14
			c0,12.69,6.35,19.04,19.04,19.04h38.07c12.69,0,19.04-6.35,19.04-19.04v-57.11l-22.09-19.04h22.09V88z M689.47,133.68h7.61v46.22
			l-11.42-11.12l-11.42,11.12v-53.83l-22.09-19.04h52.54L723.73,88H651.4l-15.23,26.12l11.42,11.95v76.14h26.65l11.42-11.12
			l11.42,11.12h26.65v-83.76h-34.26V133.68z M700.89,209.82v22.84l22.84,22.84v-45.68H700.89z M773.22,88h-22.84l-15.23,26.12
			l11.42,11.95v57.11h-7.61v19.04h34.26v-76.14l-22.09-19.04h22.09V88z M796.07,88v19.04h57.11L872.21,88H796.07z M853.17,118.45
			H815.1c-12.69,0-19.04,6.35-19.04,19.04v64.72h26.65v-64.72h22.84v64.72h26.65v-64.72C872.21,124.8,865.86,118.45,853.17,118.45z
			 M852.79,51.82c-6.89-3.81-14.14-5.7-21.7-5.7c-9.12,0-15.98,1.9-20.55,5.7c-4.58,3.81-6.86,9.53-6.86,17.14v7.61h68.53v-7.61
			C866.12,61.35,859.65,55.63,852.79,51.82z M821.96,68.96c0-2.54,0.76-4.45,2.28-5.72c1.53-1.27,3.81-1.9,6.84-1.9
			c6.1,0,11.37,0.63,15.84,1.9c4.47,1.27,8.03,3.18,10.67,5.72H821.96z M936.93,133.68h7.61v49.49H921.7v-57.11l-22.09-19.04h52.54
			L971.19,88h-72.33l-15.23,26.12l11.42,11.95v57.11c0,12.69,6.35,19.04,19.04,19.04h38.07c12.69,0,19.04-6.35,19.04-19.04v-64.72
			h-34.26V133.68z M967.39,217.44v-7.61h-22.84v7.61h-7.61v7.61h7.61v19.04H921.7v-34.26h-26.65v11.42h3.81v22.84
			c0,7.61,6.35,11.42,19.04,11.42h26.65l22.84-22.84v-7.61H975v-7.61H967.39z M431.95,80.13h-5.16v6.33h-0.02v20.58H355.2
			l22.09,19.04v57.11h22.84v-49.49h-7.61v-15.23h34.26v64.72c0,12.69-6.35,19.04-19.04,19.04h-38.07
			c-12.69,0-19.04-6.35-19.04-19.04v-57.11l-11.42-11.95L354.44,88h45.69v-7.61h0.02v-0.26h-5.17l18.47-34.01L431.95,80.13z"/>
	</g>
</g>
</svg>
