<?xml version="1.0" encoding="utf-8"?>
<!-- Generator: Adobe Illustrator 24.0.0, SVG Export Plug-In . SVG Version: 6.00 Build 0)  -->
<svg version="1.1" id="Layer_1" xmlns="http://www.w3.org/2000/svg" xmlns:xlink="http://www.w3.org/1999/xlink" x="0px" y="0px"
	 viewBox="0 0 1000 1000" style="enable-background:new 0 0 1000 1000;" xml:space="preserve">
<style type="text/css">
	.st0{fill:url(#SVGID_1_);}
	.st1{fill:#DB2441;}
	.st2{fill:#FFFFFF;}
</style>
<g>
	<linearGradient id="SVGID_1_" gradientUnits="userSpaceOnUse" x1="177.652" y1="500.3571" x2="822.0146" y2="500.3571">
		<stop  offset="2.663895e-07" style="stop-color:#253574"/>
		<stop  offset="1" style="stop-color:#263C8E"/>
	</linearGradient>
	<path class="st0" d="M576.61,737.64c-22.17,2.94-38.64-5.54-43.03-22.2l-0.66-2.47c0,0-3.7,5.87-5.71,10.02v0.03
		c7.41,17.29,26.59,26.23,50.52,23.05c41.49-5.54,102.9-52.16,102.11-157.87l-0.14-18.08l-7.93,16.24
		c-5.98,12.24-16.35,28.9-33.18,43.49c-16.85,14.6-40.17,27.11-72.03,31.04c-4.53,0.55-9.38,1.07-14.57,1.62
		c-48.6,5.08-125.95,13.14-150.76,89.9v0.05l-0.08,0.22l-0.19,0.58l-0.14,0.44c-3.24,10.37-5.57,21.98-6.7,34.96
		c-9.85,111.55,84.98,139.56,126.23,146.42c13.67,2.28,30.93,7.96,47.25,15.28h19.15c-21.9-11.8-47.75-20.77-65.01-23.65
		c-38.91-6.48-128.4-32.82-119.15-137.29c9.17-103.75,94.09-112.62,150.27-118.46c5.24-0.55,10.18-1.07,14.71-1.65
		c55.84-6.89,86.99-38.58,103.31-64.1C665.52,693.46,612.86,732.78,576.61,737.64z M756.05,116.32
		c-10.29-10.32-21.6-19.62-33.75-27.8c-1.37-0.91-2.74-1.81-4.12-2.72c-1.37-0.88-2.77-1.73-4.17-2.61
		c-1.65,19.29-0.8,41.13,4.28,65.2c9.28,43.91-5.54,100.9-33.7,129.68l-9.11,9.33l12.84-2.17c22.03-3.7,33.26-16.13,42.26-29.88
		c0.16,25.25-0.6,62.81-2.03,81.8c-4.72,62.56-30.38,113.25-60.59,152.1c2.52-0.85,5.02-1.73,7.52-2.66h0.03
		c2.41-0.88,4.77-1.81,7.13-2.8c7.46-3.07,14.76-6.56,21.82-10.4c2.31-1.26,4.58-2.55,6.83-3.9h0.03c2.31-1.37,4.58-2.77,6.81-4.2
		l9.3-6.42l2.41-1.65c0.47-0.33,0.96-0.69,1.43-1.04c1.26-0.93,2.5-1.87,3.73-2.85c52.96-41.16,87.01-105.51,87.01-177.79
		C822.01,213.38,796.82,157.07,756.05,116.32z M677.84,206.3c0.33-0.85,0.66-1.67,1.02-2.52c0.05-0.14,0.11-0.27,0.16-0.38
		c10.02-25.44,4.36-38.97,4.36-38.97c-6.31,15.28-19.56,28.54-33.61,42.59c-14.27,14.27-29.03,29.03-38.06,47.47
		c-20.2,41.22,14.98,89.65,20.42,96.76l-1.62,2.5c-0.58,0.82-13.99,20.61-49.94,18.25c-27-1.76-50.9-21.02-60.84-49.12
		c-12.68-35.78-0.6-76.61,32.27-110.86c0.38,8.78,2.8,14.32,5.13,19.76c2.8,6.42,5.71,13.06,5.71,26.53v9.11l6.97-5.87
		c14.43-12.1,13.86-25.33,13.28-38.09c-0.74-16.74-1.54-34.03,26.07-57.35c6.92-5.87,14.46-9.82,21.79-13.64
		c15.86-8.31,32.27-16.88,39.38-44.12c3.84-14.74,9.22-27.96,15.37-39.76c-1.29-0.58-2.61-1.12-3.95-1.65
		c-1.32-0.55-2.66-1.07-4.01-1.59c-25.08-9.69-52.38-14.98-80.9-14.98H342.76c-3.49,0-6.31,2.83-6.31,6.28v145.85
		c0,3.46-2.8,6.28-6.28,6.28h-146.2c-3.49,0-6.31,2.83-6.31,6.28v729.02c0,3.46,2.8,6.28,6.28,6.28h90.72l-20.58-10.43
		c-2.22-1.12-54.09-27.96-63.69-80.32c-7.55-47.14-4.97-93.6,7.66-138.14c0.66-2.36,1.67-5.35,2.83-8.84
		c3.13-9.47,7.6-22.91,10.18-38.17c6.61,21.95,15.53,39.71,23.05,49.48l9.36,12.13c-7.74-20.47-11-37.29-12.29-49.2
		c-0.69-5.05-1.01-10.54-0.74-16.35v-0.36c0.05-1.07,0.11-2.14,0.22-3.24c0.99-11.99,4.5-25.38,12.18-39.73
		c22.91-33.12,52.74-63.5,88.91-90.44c14.6-12.21,22.5-24.7,26.67-36c2.66-7.13,3.81-13.78,4.23-19.59
		c2.58,6.42,4.5,12.98,5.79,19.59c3.84,20.06,1.73,40.86-6.45,60.92l-8.62,21.05l15.61-16.52c12.24-12.95,16.24-31.5,20.53-51.15
		c1.04-4.75,2.08-9.55,3.27-14.3c4.31-17.67,10.4-34.71,24.48-47.2c36.03-31.91,34.25-56.77,32.19-85.56
		c-1.73-24.2-3.68-51.29,16.57-89.79c0.58,56.14,22.8,76.92,40.97,93.9c5.49,5.16,10.67,10.02,14.87,15.42
		c20.33,26.34,17.29,59.79-7.74,85.26l-8.73,8.86l12.32-1.67c2.66-0.36,5.16-0.85,7.49-1.4c2.58-0.63,4.97-1.37,7.16-2.25
		c8.84-3.38,14.93-8.45,19.46-14.41c0.11-0.14,0.22-0.25,0.3-0.38c2.22-2.96,4.03-6.12,5.63-9.39c0.41,1.7,0.8,3.43,1.13,5.19
		c0.33,1.45,0.6,2.94,0.91,4.45v0.03c0.25,1.48,0.52,2.99,0.77,4.47c0,0.03,0,0.03,0,0.05c1.48,9.41,2.36,19.02,2.31,27.03
		c-0.03,2.42-0.08,4.8-0.16,7.13v0.66c-0.16,5.21-0.44,10.21-0.88,15.04c-0.14,1.7-0.3,3.38-0.49,5.02
		c-0.19,1.78-0.38,3.51-0.63,5.24c-5.27,40.17-20.22,66.08-44.65,77.3c-1.34,0.63-2.72,1.21-4.12,1.73
		c-0.3,0.11-0.63,0.25-0.96,0.36c-1.12,0.41-2.22,0.8-3.32,1.15c-1.65,0.55-3.29,1.07-4.88,1.54c-18.91,4.25-34.66,1.89-45.33-7.02
		c-9.11-7.6-13.56-19.7-11.31-30.82c0-0.05,0-0.14,0.03-0.19c0.03-0.08,0.03-0.16,0.05-0.25c2.28-10.18,6.7-17.81,12.7-22.17
		c1.21-0.88,2.44-1.62,3.76-2.22c1.07-0.49,2.17-0.88,3.29-1.21c0.52-0.14,1.04-0.27,1.56-0.38c0,0,0,0,0.03,0
		c5.82-1.15,11.17,0.25,14.79,2.58c0.03,0,0.03,0,0.03,0c1.04,0.66,1.95,1.4,2.66,2.17c0.55,0.58,1.04,1.15,1.45,1.76
		c0.6,0.82,1.13,1.65,1.54,2.47c0,0,6.37,12.13,5.71,26.12c0.63-1.04,1.26-2.31,1.87-3.73c0.96-2.31,1.84-5.05,2.36-8.04
		c0-0.03,0-0.03,0-0.05c0.69-4.01,0.77-8.4-0.38-12.81c-0.11-0.52-0.27-1.04-0.44-1.56c-0.03-0.05-0.03-0.08-0.05-0.14
		c-0.11-0.33-0.22-0.63-0.33-0.96c-0.05-0.14-0.11-0.27-0.16-0.41c-0.71-1.73-1.51-3.21-1.89-3.87c-0.08-0.14-0.16-0.25-0.19-0.3
		c0,0,0-0.03,0-0.05h-0.03c-0.41-0.69-0.91-1.37-1.43-2.06c-0.05-0.08-0.14-0.16-0.19-0.25c-0.49-0.66-1.04-1.29-1.65-1.92
		c-0.63-0.69-1.32-1.32-2.06-1.92c-6.56-5.41-16.41-7.35-25.47-4.8c-0.22,0.05-0.47,0.14-0.69,0.22c-1.29,0.38-2.69,0.91-4.2,1.59
		c-1.29,0.63-2.61,1.37-3.98,2.3c-6.31,4.23-13.12,12.07-16.6,26.62c-3.81,2.39-9,5.32-15.34,8.95
		c-29.8,16.88-79.69,45.11-118.32,91.13c-47.28,56.34-62.7,122.28-45.77,195.98c7.96,34.66,20.39,63.36,35.43,87.1h9.8
		c-16.85-25.47-29.2-55.16-36.94-88.99c-38.03-165.71,100.73-244.28,159.98-277.84c0.66-0.38,1.32-0.74,1.98-1.1
		c1.95-1.12,3.79-2.14,5.49-3.13c0.88-0.52,1.73-1.02,2.55-1.48c0.36,10.21,4.75,20.33,12.29,27.8c0.82,0.85,1.73,1.65,2.63,2.42
		c3.87,3.24,9.85,6.97,18.28,9.17c4.06,1.07,8.7,1.76,13.94,1.87c-2.08,0.8-4.12,1.62-6.15,2.44c-15.39,6.26-29.2,12.62-41.68,19.21
		c-1.54,0.8-29.86,16.16-40.86,51.89c0.71-13.78,3.43-27.36,6.26-36.47L412.27,622l-18.22,30.71c-4.14,7-13.58,20.53-22.64,33.01
		c-2.09,2.88-4.14,5.68-6.12,8.34c-0.69,0.91-1.34,1.78-2,2.66c-1.37,1.81-2.69,3.65-3.95,5.49
		c-28.46,40.48-39.07,84.46-33.37,137.89c2.61,19.7,9.77,32.96,18.99,42.12c-1.1-0.49-2.22-1.04-3.35-1.59l-9.44-4.58l3.59,9.88
		c10.07,27.55,27.03,48.6,45.5,64.43h13.45c-18.93-14.41-35.92-33.23-46.95-57.57c0,0,29.31,5.24,46.7,3.13
		c-0.11-0.03-0.25-0.05-0.36-0.08c-0.11-0.03-0.25-0.05-0.36-0.08c-1.81-0.44-3.65-0.85-5.52-1.32
		c-22.86-5.65-48.51-15.01-53.81-55.35c-4.8-45.03,2.47-83.09,22.86-117.99c1.65-2.85,3.4-5.68,5.27-8.48
		c1.59-2.47,3.27-4.91,5.02-7.35c0.82-1.15,1.67-2.3,2.52-3.46c5.79-7.74,12.6-17.12,18.58-25.66c0,0,0.74,45.41,7.71,65.47
		c-0.41-16,4.5-35.92,6.31-42.61c0.33-1.32,0.58-2.11,0.63-2.31c0-0.03,0-0.03,0-0.03c7.71-26.32,25.85-42.56,36.99-48.43
		c11.03-5.82,23.1-11.47,36.47-17.01c4.56-1.89,9.28-3.81,14.16-5.71c0.03,0,0.03-0.03,0.05-0.03h0.03c5.41-2.09,11-4.14,16.79-6.23
		c2.8-1.02,5.63-2,8.51-2.99l0.14,0.14l2.5-1.04l0.19-0.08l1.34-0.44c19.1-6.53,49.67-16.96,67.31-37.46c0,0,8.07,22.42,3.81,45.69
		c0.16-0.49,0.33-0.96,0.49-1.43l1.37-3.98c8.86-25.96,16.55-48.38,53.62-77.33c6.39-4.99,12.13-9.06,17.64-13.01
		c1.34-0.96,2.63-1.89,3.92-2.85c-2.11,0.71-44.37,14.98-69.92,32.85c-1.98,1.54-3.95,3.02-5.9,4.45l-8.2,5.93
		c-15.45,10.89-29.72,19.51-41.22,25.9c14.27-16.35,23.11-40.56,26.4-72.47c8.86-5.3,18.19-11.44,27.6-18.49l2.58-1.92
		c12.92-9.88,25.9-21.4,37.84-34.74c41.74-46.57,54.55-98.73,37.07-150.9c-18.03-53.81-8.7-80.7,2.44-107.73
		C677.54,206.99,677.68,206.63,677.84,206.3z M280.61,385.98h-44.59c-3.79,0-6.86-3.07-6.86-6.86c0-3.79,3.07-6.86,6.86-6.86h44.59
		c3.79,0,6.86,3.07,6.86,6.86C287.47,382.91,284.4,385.98,280.61,385.98z M229.16,327.34c0-3.79,3.07-6.86,6.86-6.86h107.46
		c3.81,0,6.86,3.07,6.86,6.86c0,3.79-3.05,6.86-6.86,6.86H236.02C232.23,334.2,229.16,331.13,229.16,327.34z M412.9,385.98H307.53
		c-3.79,0-6.86-3.07-6.86-6.86c0-3.79,3.07-6.86,6.86-6.86H412.9c3.79,0,6.86,3.07,6.86,6.86
		C419.76,382.91,416.69,385.98,412.9,385.98z M370.18,327.21c0-3.46,2.83-6.26,6.28-6.26h28.92c3.46,0,6.26,2.8,6.26,6.26
		c0,3.49-2.8,6.28-6.26,6.28h-28.92C373,333.49,370.18,330.69,370.18,327.21z M412.9,282.42H236.02c-3.79,0-6.86-3.07-6.86-6.86
		c0-3.79,3.07-6.86,6.86-6.86H412.9c3.79,0,6.86,3.07,6.86,6.86C419.76,279.35,416.69,282.42,412.9,282.42z M671.2,200.13
		c-11.94,28.62-24.23,58.2-4.34,117.67c25.63,76.42-22.14,141.15-81.09,182.95l-0.88,0.63c-4.67,3.29-9.41,6.45-14.21,9.41
		c0.22-3.16,0.38-6.34,0.47-9.63v-0.58c0.11-2.33,0.14-4.75,0.16-7.16c0.08-9.6-1.04-21.05-2.99-32c2.03-1.29,4.03-2.58,5.98-3.87
		c1.34-0.88,2.63-1.76,3.92-2.63c1.24-0.85,2.47-1.7,3.65-2.52c1.07-0.77,2.14-1.51,3.18-2.28c1.01-0.74,2-1.45,2.96-2.19
		c1.02-0.77,2-1.51,2.99-2.25c0.74-0.58,1.45-1.13,2.17-1.67c0.25-0.16,0.49-0.36,0.74-0.55c1.89-1.48,3.7-2.94,5.43-4.36
		c0.8-0.69,1.59-1.34,2.36-2c0.77-0.66,1.54-1.32,2.28-1.98c0.82-0.71,1.65-1.45,2.41-2.17c0.8-0.71,1.56-1.43,2.33-2.14
		c0.3-0.27,0.58-0.55,0.85-0.82c0.91-0.82,1.76-1.67,2.61-2.52c0.3-0.3,0.6-0.58,0.88-0.88c0.69-0.69,1.37-1.37,2.03-2.06
		c0.96-1.04,1.92-2.06,2.83-3.07c0.33-0.36,0.66-0.69,0.96-1.04c0.58-0.66,1.15-1.29,1.7-1.95c1.12-1.29,2.17-2.58,3.16-3.84
		c0.99-1.26,1.95-2.5,2.85-3.73c0.91-1.26,1.76-2.47,2.55-3.68c0.41-0.58,0.77-1.15,1.13-1.73c0.36-0.55,0.69-1.07,1.01-1.59
		c0.38-0.63,0.74-1.23,1.1-1.87c0.33-0.58,0.66-1.12,0.96-1.7c0.3-0.55,0.6-1.1,0.88-1.65c0.3-0.55,0.58-1.1,0.82-1.62
		c0.69-1.35,1.26-2.63,1.81-3.92c0.22-0.49,0.41-1.01,0.6-1.51c0.52-1.26,0.96-2.5,1.34-3.68c8.92-23.71,1.65-39.27,1.07-40.42
		l-0.49-0.77c-0.38-0.49-39.05-49.7-20.06-88.52c8.42-17.18,22.67-31.42,36.44-45.19c6.2-6.2,12.27-12.27,17.7-18.47
		C672.71,196.42,671.94,198.26,671.2,200.13z"/>
	<path class="st1" d="M311.4,189.97H192.85c-5.6,0-8.41-6.78-4.44-10.74L306.97,61.02c3.95-3.94,10.7-1.14,10.7,4.44v118.23
		C317.67,187.16,314.86,189.97,311.4,189.97z"/>
	<path class="st2" d="M494.45,547.41h0.03c0,0.03,0,0.05,0,0.05C494.45,547.44,494.45,547.41,494.45,547.41z"/>
	<path class="st2" d="M606.96,550.84l-0.08,0.08v-0.03C606.9,550.92,606.93,550.89,606.96,550.84z"/>
	<path class="st2" d="M230.63,666.91c-0.11,1.1-0.16,2.17-0.22,3.24C230.5,668.04,230.63,666.91,230.63,666.91z"/>
	<path class="st1" d="M743.59,584.81c-1.21-1.54-2.47-3.05-3.76-4.53c-1.26-1.51-2.55-3.02-3.9-4.47
		c-1.21,14.43-3.51,27.88-6.86,40.39c-12.79,47.8-39.46,66.19-59.57,73.21l-13.34,4.64l13.69,3.49c8.34,2.14,22.17,2.2,31.94,1.37
		c-14.82,34.71-54.66,68.96-95.82,81.47c-27.25,8.31-51.53,5.74-68.33-7.24c-9.08-7-14.24-15.48-15.28-25.19
		c-0.85-7.96,1.07-15.81,3.79-22.47v-0.03c0-0.03,0.03-0.05,0.05-0.11c1.24-3.7,6.72-12.38,6.72-12.38l-0.22-0.05l-2.25-0.52
		c-0.47-0.11-1.23-0.22-2.25-0.33c-1.26-0.11-2.91-0.19-4.86-0.19c-9.71,0.05-27,2.44-42.07,14.19
		c-18.39,14.35-27.93,37.81-28.37,69.73c-0.99,72.8,90.39,81.77,91.35,81.88c0.8,0.05,80.65,7.33,103.29,59.03
		c1.32-0.49,2.63-0.99,3.95-1.51h0.03c1.35-0.55,2.63-1.07,3.92-1.65c81.01-34.08,137.86-114.21,137.86-207.59
		C793.31,672.51,774.68,623.42,743.59,584.81z"/>
</g>
</svg>
